<?xml version="1.0" standalone="no"?>
<!DOCTYPE svg PUBLIC "-//W3C//DTD SVG 20010904//EN"
 "http://www.w3.org/TR/2001/REC-SVG-20010904/DTD/svg10.dtd">
<svg version="1.0" xmlns="http://www.w3.org/2000/svg"
 width="1280.000000pt" height="1025.000000pt" viewBox="0 0 1280.000000 1025.000000"
 preserveAspectRatio="xMidYMid meet">

<g transform="translate(0.000000,1025.000000) scale(0.100000,-0.100000)"
fill="#000000" stroke="none">
<path d="M3431 9005 c-171 -380 -466 -679 -941 -952 -58 -33 -247 -134 -420
-223 -574 -296 -765 -419 -984 -630 -185 -179 -318 -378 -429 -645 -123 -297
-141 -594 -48 -816 123 -294 443 -517 941 -654 307 -85 731 -145 1148 -162 84
-3 151 -9 150 -12 -2 -3 -135 -204 -297 -446 -285 -425 -295 -442 -299 -495
-6 -75 27 -167 129 -371 44 -89 84 -172 89 -184 7 -18 -59 -130 -393 -666
l-402 -644 -90 -68 c-244 -185 -280 -225 -279 -311 3 -144 148 -439 457 -926
l124 -195 89 -2 c49 -2 769 -10 1599 -18 l1511 -15 364 206 c722 408 1067 635
1148 754 26 38 26 39 6 300 l-6 85 367 641 368 641 72 30 c168 69 442 257 585
402 80 81 107 121 423 637 l337 551 153 7 c907 41 1637 201 2192 478 151 75
186 96 312 180 486 324 768 774 790 1263 12 265 -58 453 -244 663 -68 76 -196
185 -454 389 -324 255 -474 454 -523 695 -22 105 -21 298 2 410 l18 86 -21
-10 c-11 -6 -92 -84 -180 -172 -217 -217 -320 -372 -391 -586 -26 -80 -28 -95
-28 -255 0 -157 2 -177 28 -259 40 -131 75 -211 172 -391 111 -205 145 -285
151 -357 5 -49 2 -66 -23 -115 -30 -63 -111 -150 -186 -201 -398 -272 -1400
-441 -2628 -442 l-235 0 -794 -1318 -793 -1317 -277 -178 c-173 -111 -283
-188 -293 -205 -9 -15 -150 -281 -313 -592 -164 -311 -320 -607 -348 -657
l-51 -93 -50 0 c-129 -1 -1712 34 -1716 37 -7 6 9 33 393 653 375 606 478 773
495 806 10 18 -2 49 -72 201 -46 99 -87 189 -90 200 -5 15 197 325 834 1279
l841 1259 -178 2 c-1662 19 -2684 206 -2858 524 -43 78 -42 155 2 224 45 70
148 168 373 355 376 312 525 459 656 651 73 106 122 204 160 319 25 77 28 99
28 235 1 128 -2 161 -22 230 -20 68 -104 265 -114 265 -2 0 -18 -34 -37 -75z"/>
</g>
</svg>
